<svg width="39" height="34" viewBox="0 0 39 34" fill="none" xmlns="http://www.w3.org/2000/svg">
<path id="W" d="M9.67291 22.9193L10.2967 27.197L11.2102 23.3426L17.2969 1.87022C17.4151 1.45317 17.4742 1.24464 17.5955 1.08984C17.7025 0.953198 17.8433 0.84678 18.004 0.781047C18.186 0.706573 18.4027 0.706573 18.8362 0.706573H20.0185C20.4546 0.706573 20.6727 0.706573 20.8555 0.781775C21.0168 0.848144 21.158 0.955563 21.265 1.09336C21.3862 1.2495 21.4443 1.45969 21.5606 1.88007L27.4966 23.3426L28.3877 27.2638C28.3877 27.2638 28.7903 24.5993 29.0784 22.897C30.2958 15.703 32.9086 5.36252 33.8046 1.89258C33.9131 1.47259 33.9673 1.26259 34.0882 1.10288C34.1945 0.962595 34.3379 0.851527 34.5002 0.783743C34.6851 0.706573 34.9052 0.706573 35.3454 0.706573H36.3793C37.0733 0.706573 37.4203 0.706573 37.6585 0.850202C37.8673 0.9761 38.0229 1.17394 38.0961 1.40653C38.1795 1.67187 38.0978 2.0091 37.9342 2.68356L30.8454 31.9226C30.7394 32.3597 30.6864 32.5782 30.5658 32.741C30.4593 32.8846 30.3163 32.9971 30.1516 33.0667C29.965 33.1456 29.7401 33.1456 29.2904 33.1456H27.8603C27.4265 33.1456 27.2096 33.1456 27.0275 33.0711C26.8668 33.0053 26.726 32.8987 26.6189 32.762C26.4977 32.607 26.4386 32.3983 26.3206 31.981L19.9661 9.507L19.4536 7.03397L18.9412 9.507L12.3493 31.9957C12.2284 32.4081 12.168 32.6143 12.0466 32.7673C11.9395 32.9023 11.7992 33.0073 11.6395 33.0722C11.4586 33.1456 11.2437 33.1456 10.8139 33.1456H9.37262C8.92263 33.1456 8.69764 33.1456 8.5109 33.0666C8.34615 32.997 8.20311 32.8844 8.09668 32.7406C7.97604 32.5777 7.92317 32.359 7.81742 31.9216L0.748645 2.68255C0.585658 2.00838 0.504165 1.6713 0.587713 1.4061C0.660948 1.17363 0.816561 0.975913 1.02531 0.850102C1.26345 0.706573 1.61025 0.706573 2.30384 0.706573H3.2757C3.73018 0.706573 3.95743 0.706573 4.14542 0.786772C4.31126 0.857517 4.45488 0.971782 4.5611 1.11747C4.6815 1.28263 4.73258 1.50406 4.83475 1.94691L9.67291 22.9193Z" fill="url(#paint0_angular)"/>
<defs>
<radialGradient id="paint0_angular" cx="0" cy="0" r="1" gradientUnits="userSpaceOnUse" gradientTransform="translate(19.3422 0.706573) rotate(90) scale(32.439 38.1426)">
<stop stop-color="#FF0000"/>
<stop offset="1" stop-color="#B00000"/>
</radialGradient>
</defs>
</svg>
